<?xml version="1.0" encoding="UTF-8"?>
<svg id="Capa_2" data-name="Capa 2" xmlns="http://www.w3.org/2000/svg" viewBox="0 0 266.42 84.06">
  <defs>
    <style>
      .cls-1 {
        fill: #ee7900;
      }

      .cls-2 {
        fill: #0b5452;
      }
    </style>
  </defs>
  <g id="Layer_1" data-name="Layer 1">
    <path class="cls-2" d="M20.18,39.23c0,.26-.03.51-.04.77h20.03c0-.26.04-.51.04-.77C40.21,17.56,22.64,0,.98,0v20.03c10.61,0,19.21,8.6,19.21,19.21"/>
    <path class="cls-2" d="M83.35,20.41c.26,0,.51.03.77.04V.43c-.26,0-.51-.04-.77-.04-21.67,0-39.23,17.57-39.23,39.23h20.03c0-10.61,8.6-19.21,19.21-19.21"/>
    <path class="cls-1" d="M.77,61.87c-.26,0-.51-.03-.77-.04v20.03c.26,0,.51.04.77.04,21.67,0,39.23-17.56,39.23-39.23h-20.03c0,10.61-8.6,19.21-19.21,19.21"/>
    <path class="cls-1" d="M44.5,61.87c-.26,0-.52-.03-.77-.04v20.03c.26,0,.51.04.77.04,21.67,0,39.23-17.56,39.23-39.23h-20.03c0,10.61-8.6,19.21-19.21,19.21"/>
    <g>
      <path class="cls-2" d="M138.41,19.75V0h14.48v56.02h-14.08v-4.88c-2.68,3.88-6.53,5.82-11.57,5.82-5.35,0-9.57-1.91-12.67-5.74-3.1-3.83-4.64-9-4.64-15.5s1.55-11.67,4.64-15.5c3.09-3.83,7.32-5.74,12.67-5.74,4.77,0,8.5,1.76,11.17,5.27ZM124.48,36.03c0,6.4,2.36,9.6,7.08,9.6s7.08-3.3,7.08-9.91-2.36-9.91-7.08-9.91-7.08,3.41-7.08,10.23Z"/>
      <path class="cls-2" d="M201.11,37.29v2.6h-29.74c.94,4.56,3.64,6.84,8.1,6.84,3.36,0,5.74-1.18,7.16-3.54h13.53c-1.1,4.35-3.54,7.74-7.32,10.15-3.83,2.41-8.29,3.62-13.37,3.62-6.5,0-11.78-1.94-15.81-5.82-4.04-3.88-6.06-9.02-6.06-15.42s1.99-11.59,5.98-15.42c3.99-3.88,9.23-5.82,15.73-5.82s11.77,2.02,15.81,6.06c3.99,4.04,5.98,9.63,5.98,16.76ZM179.16,24.7c-4.3,0-6.9,2.2-7.79,6.61h15.81c-.94-4.41-3.62-6.61-8.02-6.61Z"/>
      <path class="cls-2" d="M247.37,56.02h-14.55c-.58-1.26-.92-2.65-1.02-4.17-2.78,3.41-7.08,5.11-12.9,5.11-4.46,0-8.06-1.13-10.82-3.38-2.75-2.25-4.13-5.35-4.13-9.28s1.28-6.78,3.86-8.85c2.57-2.07,6.69-3.34,12.35-3.82l6.53-.55c1.73-.16,2.98-.5,3.74-1.02.76-.52,1.14-1.31,1.14-2.36,0-2.15-1.71-3.23-5.11-3.23-2.1,0-3.58.3-4.45.9-.87.6-1.4,1.74-1.61,3.42h-14.32c.37-4.83,2.22-8.42,5.55-10.78,3.33-2.36,8.33-3.54,14.99-3.54,12.75,0,19.12,4.25,19.12,12.75v21.48c0,3.41.55,5.85,1.65,7.32ZM223.85,47.68c5.14,0,7.71-2.54,7.71-7.63v-2.36c-.58.79-1.78,1.31-3.62,1.57l-4.64.47c-3.09.31-4.64,1.65-4.64,4.01,0,1.21.46,2.16,1.38,2.87.92.71,2.19,1.06,3.82,1.06Z"/>
      <path class="cls-2" d="M265.78,56.02h-14.48V0h14.48v56.02Z"/>
    </g>
    <g>
      <path class="cls-1" d="M126.66,66.76c-.87-.63-1.97-.94-3.32-.94-.55,0-1.08.05-1.61.16-.53.11-1,.29-1.41.55-.41.26-.74.6-.98,1.03-.25.43-.37.96-.37,1.6,0,.6.18,1.09.53,1.46.36.37.83.68,1.42.92.59.24,1.26.43,2.01.59.75.16,1.51.32,2.28.51s1.54.4,2.28.64c.75.25,1.42.58,2.01,1,.59.42,1.07.95,1.42,1.59.36.64.53,1.44.53,2.41,0,1.04-.23,1.93-.7,2.67s-1.06,1.34-1.79,1.8c-.73.46-1.55.8-2.45,1.01-.9.21-1.8.31-2.69.31-1.09,0-2.13-.14-3.1-.41-.98-.27-1.83-.69-2.57-1.24-.74-.56-1.32-1.27-1.75-2.13-.43-.87-.64-1.89-.64-3.08h2.46c0,.82.16,1.53.48,2.12.32.59.74,1.08,1.26,1.46s1.13.67,1.82.85c.69.18,1.4.27,2.13.27.58,0,1.17-.05,1.76-.16.59-.11,1.13-.3,1.6-.56.47-.26.86-.62,1.15-1.08.29-.46.44-1.04.44-1.75,0-.67-.18-1.22-.53-1.64-.36-.42-.83-.76-1.42-1.03-.59-.26-1.26-.48-2.01-.64-.75-.16-1.51-.33-2.28-.51-.78-.17-1.54-.37-2.28-.6-.75-.23-1.42-.53-2.01-.9-.59-.37-1.07-.86-1.42-1.45-.36-.59-.53-1.34-.53-2.23,0-.98.2-1.84.6-2.56.4-.72.93-1.31,1.6-1.78.67-.46,1.42-.81,2.27-1.04.85-.23,1.72-.34,2.61-.34,1,0,1.93.12,2.79.36.86.24,1.61.61,2.26,1.12.65.51,1.16,1.15,1.53,1.93.37.78.58,1.7.62,2.78h-2.46c-.15-1.4-.65-2.42-1.52-3.05Z"/>
      <path class="cls-1" d="M152.11,64.09c1.97,0,3.46.51,4.47,1.52,1.01,1.01,1.52,2.43,1.52,4.25s-.51,3.25-1.52,4.27c-1.01,1.02-2.5,1.52-4.47,1.5h-5.96v7.99h-2.6v-19.53h8.56ZM151.23,73.45c1.48.02,2.56-.28,3.24-.9.68-.62,1.03-1.51,1.03-2.68s-.34-2.06-1.03-2.67-1.76-.92-3.24-.92h-5.09v7.17h5.09Z"/>
      <path class="cls-1" d="M169.73,70.01c.39-1.23.98-2.32,1.76-3.27.78-.95,1.76-1.7,2.93-2.27,1.17-.56,2.52-.85,4.07-.85s2.91.28,4.07.85c1.17.57,2.14,1.32,2.93,2.27.78.95,1.37,2.04,1.76,3.27.39,1.23.59,2.51.59,3.84s-.2,2.61-.59,3.84c-.39,1.23-.98,2.32-1.76,3.27-.78.95-1.76,1.7-2.93,2.26-1.17.56-2.53.83-4.07.83s-2.91-.28-4.07-.83c-1.17-.56-2.14-1.31-2.93-2.26-.78-.95-1.37-2.04-1.76-3.27-.39-1.23-.59-2.51-.59-3.84s.2-2.61.59-3.84ZM172.13,76.77c.26.96.66,1.82,1.2,2.58.55.77,1.25,1.38,2.11,1.85.86.46,1.88.7,3.06.7s2.21-.23,3.06-.7c.86-.47,1.56-1.08,2.11-1.85.55-.77.95-1.63,1.2-2.58.26-.96.38-1.93.38-2.91s-.13-1.96-.38-2.91c-.26-.96-.66-1.82-1.2-2.58-.55-.77-1.25-1.38-2.11-1.85-.86-.46-1.88-.7-3.06-.7s-2.21.23-3.06.7c-.86.47-1.56,1.08-2.11,1.85s-.95,1.63-1.2,2.58c-.26.96-.38,1.93-.38,2.91s.13,1.96.38,2.91Z"/>
      <path class="cls-1" d="M209.16,64.09c1.86,0,3.31.46,4.36,1.37s1.57,2.16,1.57,3.75c0,1.19-.27,2.22-.81,3.12-.54.89-1.4,1.5-2.58,1.83v.05c.56.11,1.03.29,1.38.55.36.26.64.56.85.92s.36.75.47,1.19c.1.44.18.89.23,1.37.04.47.06.96.08,1.45.02.49.06.98.14,1.45.07.47.18.93.31,1.35s.34.81.62,1.13h-2.9c-.18-.2-.31-.47-.37-.82-.06-.35-.11-.73-.12-1.16s-.04-.89-.05-1.38c-.02-.49-.07-.98-.16-1.45-.07-.47-.16-.93-.27-1.35s-.28-.8-.52-1.12c-.24-.32-.55-.57-.93-.77-.38-.19-.89-.29-1.53-.29h-6.34v8.34h-2.6v-19.53h9.19ZM209.7,72.96c.55-.09,1.03-.27,1.44-.53.41-.26.74-.62.98-1.07.25-.45.37-1.03.37-1.74,0-.98-.27-1.79-.82-2.41-.55-.62-1.43-.93-2.65-.93h-6.45v6.81h5.41c.6,0,1.18-.05,1.72-.14Z"/>
      <path class="cls-1" d="M225.1,66.28v-2.19h15.62v2.19h-6.51v17.34h-2.6v-17.34h-6.51Z"/>
      <path class="cls-1" d="M261.62,66.76c-.87-.63-1.97-.94-3.32-.94-.55,0-1.08.05-1.61.16s-1,.29-1.41.55c-.41.26-.74.6-.98,1.03-.25.43-.37.96-.37,1.6,0,.6.18,1.09.53,1.46.36.37.83.68,1.42.92.59.24,1.26.43,2.01.59.75.16,1.51.32,2.28.51.77.18,1.54.4,2.28.64.75.25,1.42.58,2.01,1,.59.42,1.07.95,1.42,1.59.36.64.53,1.44.53,2.41,0,1.04-.23,1.93-.7,2.67-.46.74-1.06,1.34-1.79,1.8-.73.46-1.55.8-2.45,1.01-.9.21-1.8.31-2.69.31-1.09,0-2.13-.14-3.1-.41-.98-.27-1.83-.69-2.57-1.24-.74-.56-1.32-1.27-1.75-2.13s-.64-1.89-.64-3.08h2.46c0,.82.16,1.53.48,2.12.32.59.74,1.08,1.26,1.46s1.13.67,1.82.85c.69.18,1.4.27,2.13.27.58,0,1.17-.05,1.76-.16.59-.11,1.13-.3,1.6-.56.47-.26.86-.62,1.15-1.08.29-.46.44-1.04.44-1.75,0-.67-.18-1.22-.53-1.64-.36-.42-.83-.76-1.42-1.03-.59-.26-1.26-.48-2.01-.64-.75-.16-1.51-.33-2.28-.51-.78-.17-1.54-.37-2.28-.6-.75-.23-1.42-.53-2.01-.9-.59-.37-1.07-.86-1.42-1.45-.36-.59-.53-1.34-.53-2.23,0-.98.2-1.84.6-2.56.4-.72.93-1.31,1.6-1.78.67-.46,1.42-.81,2.27-1.04.85-.23,1.72-.34,2.61-.34,1,0,1.93.12,2.79.36.86.24,1.61.61,2.26,1.12.65.51,1.16,1.15,1.53,1.93.37.78.58,1.7.62,2.78h-2.46c-.15-1.4-.65-2.42-1.52-3.05Z"/>
    </g>
  </g>
</svg>