<?xml version="1.0" encoding="UTF-8"?>
<svg id="Layer_2" data-name="Layer 2" xmlns="http://www.w3.org/2000/svg" viewBox="0 0 638.67 638.67">
  <defs>
    <style>
      .cls-1 {
        fill: #1f6976;
      }
    </style>
  </defs>
  <g id="Layer_1-2" data-name="Layer 1">
    <g>
      <path class="cls-1" d="M319.34,0C142.97,0,0,142.97,0,319.34s142.97,319.34,319.34,319.34,319.34-142.97,319.34-319.34S495.7,0,319.34,0ZM482.54,419.52c-.02,19.77-13.24,36.53-28.78,47.33-27.75,19.27-59.23,28.59-94.47,30.17-58.11,2.61-113.76,1.49-170.85.59-7.89-.12-16.8-2.41-22.76-6.12-8.2-5.1-11.45-13.22-8.91-22.61V168.97c-2.15-8.35.29-15.71,7.23-20.62,5.53-3.91,14.11-6.91,21.87-7.05,59.71-1.11,117.91-2.5,177.35.75,49.42,2.71,119.58,28.5,119.53,81.05l-.21,196.42Z"/>
      <path class="cls-1" d="M372.44,208.24l-130.49-1.36v224.95s130.1-1.2,130.1-1.2c12.09-.11,20.76-8.77,24.93-18.66,1.6-8,3.27-15.92,3.27-25.27l.02-134.67c0-7.86-1.37-15.35-2.72-23.11-3.25-10.74-12.25-20.54-25.12-20.68Z"/>
    </g>
  </g>
</svg>