<?xml version="1.0" encoding="UTF-8"?>
<svg id="Layer_2" data-name="Layer 2" xmlns="http://www.w3.org/2000/svg" viewBox="0 0 544.75 632.99">
  <defs>
    <style>
      .cls-1 {
        fill: #1f6976;
      }
    </style>
  </defs>
  <g id="Layer_1-2" data-name="Layer 1">
    <g>
      <path class="cls-1" d="M544.75,0l-35.52,114.56c-7.73,21.14-26.84,36.07-49.5,37.49l-207.94.28c-64.03.09-124.78,27.17-169.98,71.98,3.86-41.61,12.35-82.76,29.82-120.82,7.1-14.3,14.43-28.31,24.53-40.6C166.9,25.48,211.21,3.9,258.81,0h285.94Z"/>
      <path class="cls-1" d="M235.11,470.93l-31.45,162.05H0s38.05-196.74,38.05-196.74c2.21-11.44,5.15-21.98,8.33-33.12,8.36-29.35,21.54-56.61,39.43-81.34s36.53-40.12,61.27-57.25c22.43-15.53,46.91-26.77,73.34-33.72,20.29-5.38,40.68-8.12,61.79-8.71l203.28.05-35.51,113.69c-7.92,22.78-28.88,38.01-53.03,38.48l-57.97.1c-10.02.02-19.32,2.08-28.78,4.88-37.15,10.99-65.13,43.79-72.64,81.59l-2.47,10.02Z"/>
    </g>
  </g>
</svg>