<?xml version="1.0" encoding="UTF-8"?>
<svg id="Layer_2" data-name="Layer 2" xmlns="http://www.w3.org/2000/svg" viewBox="0 0 845.05 168.06">
  <defs>
    <style>
      .cls-1 {
        fill: #1f6976;
      }
    </style>
  </defs>
  <g id="Layer_1-2" data-name="Layer 1">
    <g>
      <path class="cls-1" d="M760.67,137.18l-.06-5.4c-4.77,4.38-10.08,7.34-16.27,9.12-4.94,1.42-9.91,2.58-15.11,2.74l-12.67.39c-26.2-.37-48.28-14.23-54.38-40.52-.43-.46-.59-.35-.42.17l.14,5.08-.02,28.46h-51.06s-.15-39.48-.15-39.48c-2.06,9.63-6.53,18.19-13.74,24.99-13.62,13.48-34.59,19.44-53.46,20.58h-19.36c-10.31-.48-20.33-2.04-30.06-5.33-5.54-1.87-10.13-4.46-15.2-7.58l6.52,6.81-59.92.03-45.01-50.75-.1,50.73h-51.63s-.04-41.95-.04-41.95l-4.59,9.24-13.26,26.75-15.2,30.78-2.9,6.01h-49.47s13.68-24.51,13.68-24.51c2.22-3.98,1.26-8.6-.36-12.55l-26.56-41.01v47.25s-46.28-.02-46.28-.02l-1.15-4.44c-.71-.69-1.21-1.27-1.7-1.53s-1.86.12-2.41.36l-9.54,4.16c-9.39,4.09-19.25,5.99-29.5,6.38-11.63.45-22.72-1.89-32.74-7.7-4.23-2.45-7.82-5.32-11.07-8.98l-.47-.53c-.13-.15-.38.36-.38.66l.06,10.5c0,.18-.1.72-.15.85-.08.2-.53.27-.98.27H0S0,.96,0,.96l47.06-.03-.02,12.01v95.72s0,.93,0,.93c0,.15.46.21.74.21l42.95-.02c1.29-7.37,5.16-13.29,10.53-18.16,12.84-11.64,32.54-15.1,49.52-16.38l9.21-.38,6.12-.06c5-.05,16.37,1.51,16.01-5.15-.23-4.27-1.75-8.25-5.47-10.43-3.46-2.02-7.26-2.5-11.27-2.54-5.5-.06-11.04,1.23-15.17,4.87-2.65,2.34-4.59,5.15-5.11,8.9h-43.65c.15-7.11,2.66-13.77,7.24-19.13,9.45-11.04,25.12-14.75,39.27-15.82l7.22-.28h5c10.14,0,20.08.56,30.08,2.25,4.13.77,7.76,1.64,11.66,3.18h54.04s27.97,60.23,27.97,60.23l24.87-59.03c.31-.42.8-.73,1.26-.88h18.34s0-40.04,0-40.04h51.2c.32.02.74.41.76.73v76.13c.18.4.44.82.44.73l13.56-13.67,2.8-2.83,6.34-6.3,2.28-2.25,12.79-12.76,55.46-.02h.89c.19,0,.17.49.04.62l-.63.63-34.38,34.36-7.04,7.02c-.13.13-.77.56-.64.69l.8.82,27.87,27.88,7.67,7.68c.39.44.58.37.47-.2-7.19-10.25-9.01-23.21-8.12-35.39l.7-5.37c1.13-8.6,5.2-16.25,11.03-22.69,14.65-16.17,40.92-20.85,62.14-20.77,8.06.03,15.62.17,23.55,1.47,9.35,1.54,18.41,3.87,26.7,8.37s15.68,10.94,20.22,19.46l3.39,7.85.18.65,1.2,4.61.1.71.07.61.15,1.18c.02.2.52-.23.5-.42l-.08-1.01-.03-78.49,51.11-.04v64.9s.05,11.35.05,11.35l-.38,2.27.51.34c2.38-8.93,7.15-16.61,13.7-22.91l6.25-5.39c18.45-13.24,40.44-16.39,62.05-9.42,5.5,1.77,10.44,4.12,15.17,7.39l.99.68c.22.15.55-.92.48-.93l-.03-.93V.93s44.63,0,44.63,0v47.7s0,.78,0,.78v35.46s0,51.91,0,51.91v2.54s0,.82,0,.82c0,.16-.51.19-.78.19h-43.81s-.04-3.15-.04-3.15ZM521,113.58c8.81,7.36,21.03,7.31,29.71.1l3.89-3.81c8.22-10.23,9.23-24.57,2.85-36.01-4.51-8.08-12.92-13.8-22.16-13.42-15.91.65-26.07,16.25-24.89,31.62.64,8.37,4.07,16.08,10.59,21.53ZM735.93,118.83c9.23.51,17.28-4.6,21.79-12.36,4.97-8.56,5.3-18.97,1.27-27.94-1.52-3.37-3.52-5.84-6.11-8.38-8.47-8.31-21.57-8.63-30.6-.71-11.75,10.3-12.74,29.72-2.34,41.35,4.13,4.62,9.48,7.69,15.98,8.05ZM175.04,111.01c2.65-2.79,5.1-5.97,5.98-9.76.37-1.59-1.53-3.29-2.84-3.89-4.4-2.04-9.03-2.38-13.85-2.38-7.84,0-18.16,1.89-22.84,8.12-2.14,2.85-2.21,6.56-.69,9.86,3.02,6.54,13.4,7.66,20.37,6.24,5.42-1.1,10.09-4.19,13.87-8.18Z"/>
      <path class="cls-1" d="M845.05,13.46c0,7.43-6.03,13.46-13.46,13.46s-13.46-6.03-13.46-13.46,6.03-13.46,13.46-13.46,13.46,6.03,13.46,13.46ZM842.28,13.45c0-5.89-4.77-10.66-10.66-10.66s-10.66,4.77-10.66,10.66,4.77,10.66,10.66,10.66,10.66-4.77,10.66-10.66Z"/>
      <path class="cls-1" d="M834.26,20.62l-2.27-4.32c-.63-1.19-2.29-1.63-3.52-1.37v5.72s-2.9-.09-2.9-.09V6.27s7.61.08,7.61.08c2.14.02,3.76,1.77,3.95,3.56.23,2.07-.91,3.84-3.24,4.42l1.86,2.37,2.26,3.9-3.75.03ZM834.01,10.6c-.02-.38-.57-1.37-.95-1.42l-4.59-.61.05,3.85c2.9.39,5.57-.12,5.49-1.82Z"/>
    </g>
  </g>
</svg>